<?xml version="1.0" encoding="utf-8"?>
<svg xmlns="http://www.w3.org/2000/svg"
     width="32" height="32" viewBox="0 0 24 24" role="img" aria-label="Discord">
  <!-- Discord brand blue circle -->
  <circle cx="12" cy="12" r="11" fill="#5865F2"/>
  <!-- Discord face logo simplified -->
  <path fill="#FFFFFF" d="M16.8 8.1c-.6-.3-1.2-.5-1.8-.6l-.2.3c.6.1 1.2.3 1.7.5-.2.2-.3.4-.5.6-.8-.4-1.7-.6-2.6-.6s-1.8.2-2.6.6c-.2-.2-.3-.4-.5-.6.5-.2 1.1-.4 1.7-.5l-.2-.3c-.6.1-1.2.3-1.8.6-1.2 1.8-1.9 3.7-2 5.7.8.6 1.7 1 2.6 1.3.2-.3.5-.7.7-1.1-.4-.1-.7-.3-1.1-.5 0 0 0 0 0 0 .1 0 .2.1.3.1.2.1.4.1.6.2 1.2.6 2.5.6 3.7 0 .2-.1.4-.1.6-.2.1 0 .2-.1.3-.1h0c-.4.2-.7.3-1.1.5.2.4.5.8.7 1.1.9-.3 1.8-.7 2.6-1.3-.1-2-.8-3.9-2-5.7zM10.2 13.2c-.4 0-.8-.4-.8-.8s.3-.8.8-.8.8.4.8.8-.4.8-.8.8zm3.6 0c-.4 0-.8-.4-.8-.8s.4-.8.8-.8.8.4.8.8-.4.8-.8.8z"/>
</svg>
