<?xml version="1.0" encoding="utf-8"?>
<svg xmlns="http://www.w3.org/2000/svg"
     width="32" height="32" viewBox="0 0 24 24" role="img" aria-label="GitHub">
  <!-- Black circular background -->
  <circle cx="12" cy="12" r="11" fill="#181717"/>
  <!-- White GitHub “Octocat” mark -->
  <path fill="#FFFFFF" d="M12 .5C5.6.5.5 5.6.5 12c0 5.1 3.3 9.4 7.8 10.9.6.1.8-.3.8-.6v-2c-3.2.7-3.9-1.5-3.9-1.5-.5-1.2-1.1-1.5-1.1-1.5-.9-.6.1-.6.1-.6 1 .1 1.6 1 1.6 1 .9 1.6 2.5 1.1 3.1.8.1-.7.4-1.1.7-1.3-2.6-.3-5.3-1.3-5.3-5.8 0-1.3.5-2.3 1.1-3.2-.1-.3-.5-1.5.1-3.1 0 0 .9-.3 3.2 1.1.9-.3 1.8-.4 2.7-.4.9 0 1.9.1 2.7.4 2.3-1.4 3.2-1.1 3.2-1.1.6 1.6.2 2.8.1 3.1.7.8 1.1 1.9 1.1 3.2 0 4.5-2.7 5.5-5.3 5.8.4.3.8.9.8 1.8v2.7c0 .3.2.7.8.6 4.5-1.5 7.8-5.8 7.8-10.9C23.5 5.6 18.4.5 12 .5z"/>
</svg>
